<svg width="18" height="18" viewBox="0 0 18 18" fill="none" xmlns="http://www.w3.org/2000/svg">
<g clip-path="url(#clip0_54_226)">
<path d="M3.85547 16.2334V6.8086H0.522949V16.4766H3.66211C3.56761 16.622 3.50657 16.7866 3.4834 16.9585L3.47461 16.9995H0.262207C0.19317 16.9995 0.126917 16.9723 0.0778268 16.9238C0.0287368 16.8752 0.000771363 16.8093 0 16.7402L0 6.66798C0.000763304 6.56595 0.041218 6.46823 0.112793 6.39551C0.148576 6.35974 0.191055 6.33137 0.237804 6.31202C0.284554 6.29266 0.334657 6.28271 0.385254 6.28272H3.85547V0.459963C3.85535 0.399763 3.86721 0.340141 3.89034 0.284564C3.91348 0.228988 3.94743 0.178566 3.99023 0.136232C4.03272 0.0931228 4.08334 0.0588814 4.13917 0.0354954C4.19499 0.0121094 4.2549 4.46263e-05 4.31543 1.3781e-06H13.6436C13.704 -0.000146997 13.7638 0.0116872 13.8196 0.0348195C13.8755 0.0579517 13.9261 0.0919226 13.9688 0.134767L13.9893 0.15674C14.064 0.240034 14.1052 0.348058 14.105 0.459963V6.28272H17.6206C17.7223 6.28292 17.8198 6.32349 17.8916 6.39551C17.9634 6.46751 18.0039 6.56487 18.0044 6.66651V16.7388C18.0044 16.8083 17.9768 16.875 17.9276 16.9242C17.8784 16.9734 17.8117 17.001 17.7422 17.001H14.5254L14.5166 16.96C14.4938 16.788 14.4327 16.6233 14.3379 16.478H17.4771V6.81007H14.1079V16.1851C14.0713 16.1382 14.0303 16.0869 13.9863 16.0283C13.8929 15.9053 13.7857 15.7932 13.667 15.6943L13.5879 15.6314V0.522951H4.37842V15.6607L4.34033 15.6914C4.22033 15.7894 4.11261 15.9016 4.01953 16.0254C3.95654 16.1074 3.90234 16.1719 3.85547 16.2334ZM10.8574 15.4819C11.3188 15.7953 11.8198 16.0461 12.3472 16.2276C13.4194 16.5894 13.415 16.4546 13.415 17.9854H9.83789L10.8633 15.4849L10.8574 15.4819ZM7.07227 15.4819C6.61069 15.795 6.10978 16.0457 5.58252 16.2276C4.51025 16.5894 4.51318 16.4546 4.51318 17.9854H8.0918L7.06641 15.4849L7.07227 15.4819ZM7.80469 14.8125C7.83105 14.6001 7.20557 13.7988 7.09131 13.4092C6.84521 13.0195 6.75879 12.397 7.02686 11.9898C7.13232 11.8257 7.08691 11.6836 7.08691 11.458C7.08691 9.21974 11.0098 9.21827 11.0098 11.458C11.0098 11.7422 10.9468 11.8081 11.0991 12.0322C11.3555 12.4028 11.2236 13.0576 11.0068 13.4107C10.8604 13.8164 10.2114 14.5825 10.2598 14.8125C10.3008 15.961 7.80176 15.9229 7.80908 14.8125H7.80469ZM9.23584 16.7988H9.375C9.40456 16.799 9.43386 16.7934 9.46122 16.7822C9.48858 16.771 9.51346 16.7546 9.53442 16.7337C9.55539 16.7129 9.57203 16.6881 9.58339 16.6608C9.59474 16.6335 9.60059 16.6043 9.60059 16.5747V16.2085C9.60059 16.1487 9.57682 16.0913 9.53451 16.049C9.49221 16.0067 9.43483 15.9829 9.375 15.9829H8.56201C8.53246 15.9829 8.50319 15.9888 8.4759 16.0001C8.44862 16.0115 8.42384 16.0281 8.40301 16.0491C8.38218 16.0701 8.36571 16.0949 8.35453 16.1223C8.34335 16.1497 8.3377 16.179 8.33789 16.2085V16.5733C8.3377 16.6028 8.34335 16.6321 8.35453 16.6595C8.36571 16.6868 8.38218 16.7117 8.40301 16.7327C8.42384 16.7536 8.44862 16.7703 8.4759 16.7816C8.50319 16.793 8.53246 16.7988 8.56201 16.7988H8.7085L8.44043 17.9824H9.50537L9.24756 16.7988H9.23584ZM15.1216 11.8184H16.2085C16.2319 11.8184 16.2524 11.833 16.2524 11.8491V12.7031C16.2524 12.7207 16.2319 12.7368 16.2085 12.7368H15.1216C15.0981 12.7368 15.0776 12.7222 15.0776 12.7031V11.8477C15.0776 11.8316 15.0981 11.8169 15.1216 11.8169V11.8184ZM1.75781 11.8169H2.84473C2.86816 11.8169 2.88867 11.8316 2.88867 11.8477V12.7017C2.88867 12.7192 2.86816 12.7354 2.84473 12.7354H1.75781C1.73438 12.7354 1.71387 12.7207 1.71387 12.7017V11.8477C1.71387 11.8316 1.73438 11.8169 1.75781 11.8169ZM5.55176 1.53809H12.4087C12.464 1.53848 12.5169 1.56072 12.5559 1.59996C12.5948 1.6392 12.6167 1.69226 12.6167 1.74756V4.80323C12.6167 4.85853 12.5948 4.91159 12.5559 4.95083C12.5169 4.99007 12.464 5.01231 12.4087 5.0127H5.55176C5.49646 5.01231 5.44355 4.99007 5.40458 4.95083C5.36562 4.91159 5.34375 4.85853 5.34375 4.80323V1.74756C5.34336 1.72007 5.34846 1.69277 5.35876 1.66728C5.36906 1.64178 5.38434 1.6186 5.40371 1.59909C5.42309 1.57958 5.44616 1.56414 5.47158 1.55366C5.49701 1.54318 5.52426 1.53789 5.55176 1.53809ZM15.1274 9.95216H16.2144C16.2378 9.95216 16.2583 9.96681 16.2583 9.98438V10.8399C16.2583 10.856 16.2378 10.8721 16.2144 10.8721H15.1274C15.104 10.8721 15.0835 10.8574 15.0835 10.8399V9.98438C15.0835 9.96388 15.104 9.95216 15.1274 9.95216ZM15.1274 8.08448H16.2144C16.2378 8.08448 16.2583 8.09913 16.2583 8.11671V8.97071C16.2583 8.98682 16.2378 9.00294 16.2144 9.00294H15.1274C15.104 9.00294 15.0835 8.98829 15.0835 8.97071V8.11671C15.0835 8.09913 15.104 8.08448 15.1274 8.08448ZM1.75781 9.95216H2.84473C2.86816 9.95216 2.88867 9.96681 2.88867 9.98438V10.8399C2.88867 10.856 2.86816 10.8721 2.84473 10.8721H1.75781C1.73438 10.8721 1.71387 10.8574 1.71387 10.8399V9.98438C1.71387 9.96388 1.73438 9.95216 1.75781 9.95216ZM1.75781 8.08448H2.84473C2.86816 8.08448 2.88867 8.09913 2.88867 8.11671V8.97071C2.88867 8.98682 2.86816 9.00294 2.84473 9.00294H1.75781C1.73438 9.00294 1.71387 8.98829 1.71387 8.97071V8.11671C1.71387 8.09913 1.73438 8.08448 1.75781 8.08448ZM11.0435 9.22852H12.4014C12.4128 9.2289 12.4236 9.2337 12.4315 9.2419C12.4394 9.2501 12.4439 9.26106 12.4438 9.27247V10.8179C12.4438 10.8291 12.4394 10.84 12.4314 10.8479C12.4234 10.8559 12.4126 10.8604 12.4014 10.8604H11.8535C11.8313 10.5974 11.7701 10.3392 11.6719 10.0942C11.5725 9.84762 11.4296 9.62086 11.25 9.42481C11.1848 9.35568 11.1158 9.29016 11.0435 9.22852ZM5.55762 9.22852H7.09717C6.97672 9.33211 6.86636 9.44688 6.76758 9.5713C6.58924 9.79659 6.45731 10.055 6.37939 10.3316C6.36035 10.4004 6.34424 10.4663 6.33252 10.5308C6.3208 10.5952 6.31201 10.6582 6.30469 10.7271V10.7666V10.856H5.55762C5.54621 10.856 5.53525 10.8515 5.52705 10.8436C5.51885 10.8357 5.51405 10.8249 5.51367 10.8135V9.2754C5.51404 9.26386 5.51879 9.25289 5.52695 9.24473C5.53511 9.23657 5.54608 9.23182 5.55762 9.23145V9.22852ZM10.8589 6.23731H12.4014C12.4128 6.23769 12.4236 6.24249 12.4315 6.25069C12.4394 6.25889 12.4439 6.26985 12.4438 6.28126V7.82374C12.4439 7.83514 12.4394 7.84611 12.4315 7.85431C12.4236 7.86251 12.4128 7.8673 12.4014 7.86768H10.8589C10.8473 7.86732 10.8364 7.86257 10.8282 7.85441C10.8201 7.84624 10.8153 7.83528 10.8149 7.82374V6.28126C10.8153 6.26972 10.8201 6.25875 10.8282 6.25059C10.8364 6.24242 10.8473 6.23768 10.8589 6.23731ZM8.20752 6.23731H9.75C9.76154 6.23768 9.7725 6.24242 9.78067 6.25059C9.78883 6.25875 9.79358 6.26972 9.79395 6.28126V7.82374C9.79358 7.83528 9.78883 7.84624 9.78067 7.85441C9.7725 7.86257 9.76154 7.86732 9.75 7.86768H8.20312C8.19173 7.8673 8.18092 7.86251 8.17299 7.85431C8.16507 7.84611 8.16064 7.83514 8.16064 7.82374V6.28126C8.16064 6.26985 8.16507 6.25889 8.17299 6.25069C8.18092 6.24249 8.19173 6.23769 8.20312 6.23731H8.20752ZM5.55762 6.23731H7.1001C7.11164 6.23768 7.1226 6.24242 7.13077 6.25059C7.13893 6.25875 7.14368 6.26972 7.14404 6.28126V7.82374C7.14368 7.83528 7.13893 7.84624 7.13077 7.85441C7.1226 7.86257 7.11164 7.86732 7.1001 7.86768H5.55762C5.54608 7.86732 5.53511 7.86257 5.52695 7.85441C5.51879 7.84624 5.51404 7.83528 5.51367 7.82374V6.28126C5.51404 6.26972 5.51879 6.25875 5.52695 6.25059C5.53511 6.24242 5.54608 6.23768 5.55762 6.23731Z" fill="#92929D"/>
</g>
<defs>
<clipPath id="clip0_54_226">
<rect width="18" height="17.9824" fill="white"/>
</clipPath>
</defs>
</svg>
