<svg width="24" height="24" viewBox="0 0 24 24" fill="none" xmlns="http://www.w3.org/2000/svg">
<path d="M9.70491 13.2399C9.62955 13.2399 8.04867 13.2403 7.31955 13.2396C6.94419 13.2394 6.81027 13.1045 6.81027 12.7267C6.80979 11.7564 6.80955 10.7861 6.81027 9.81578C6.81051 9.44282 6.95211 9.3005 7.32267 9.30026C8.05179 9.29978 9.62403 9.30002 9.70491 9.30002C9.70491 9.23354 9.70467 7.83266 9.70491 7.18754C9.70539 6.23378 9.87555 5.32082 10.3601 4.4849C10.8562 3.6293 11.5781 3.04322 12.5033 2.70434C13.0959 2.48714 13.711 2.4005 14.3398 2.40002C15.1265 2.39954 15.9132 2.40026 16.7002 2.4017C17.0383 2.40218 17.1883 2.5517 17.1891 2.89226C17.1905 3.80498 17.1905 4.7177 17.1891 5.63018C17.1886 5.97434 17.0448 6.11258 16.699 6.11642C16.0541 6.12338 15.4087 6.11906 14.7646 6.14498C14.1139 6.14498 13.7717 6.46274 13.7717 7.13618C13.7561 7.8485 13.7652 8.56154 13.7652 9.29978C13.8262 9.29978 15.6778 9.29954 16.5432 9.29978C16.9363 9.29978 17.0707 9.4349 17.0707 9.83018C17.0707 10.7952 17.0705 11.7605 17.0698 12.7255C17.0695 13.1151 16.9433 13.2394 16.5478 13.2396C15.6823 13.2401 13.8379 13.2399 13.7573 13.2399V21.0507C13.7573 21.4671 13.6263 21.5998 13.2154 21.5998C12.2136 21.5998 11.2116 21.6 10.2099 21.5998C9.84675 21.5998 9.70515 21.4587 9.70515 21.0955C9.70491 18.5518 9.70491 13.3291 9.70491 13.2399Z" fill="white"/>
</svg>
