<svg width="24" height="24" viewBox="0 0 24 24" fill="none" xmlns="http://www.w3.org/2000/svg">
<path d="M1.06521 9.61458H14.7301C15.0122 9.61613 15.2822 9.72886 15.4816 9.92829C15.6811 10.1277 15.7938 10.3978 15.7953 10.6798V19.6908C15.7938 19.9729 15.6811 20.2429 15.4816 20.4423C15.2822 20.6418 15.0122 20.7545 14.7301 20.756H7.36212C7.44859 20.5202 7.52524 20.2765 7.59206 20.023H14.7301C14.8173 20.0217 14.9005 19.9864 14.962 19.9247C14.993 19.8941 15.0177 19.8577 15.0345 19.8176C15.0514 19.7774 15.0602 19.7344 15.0603 19.6908V14.6399H0.735033V15.7602C0.492863 15.822 0.247484 15.8706 0 15.9056V10.6798C0.000519507 10.3974 0.112913 10.1268 0.312566 9.92715C0.512219 9.7275 0.782857 9.6151 1.06521 9.61458ZM10.4418 15.8466C10.6645 15.8462 10.8842 15.8982 11.0832 15.9982C11.2822 16.0982 11.455 16.2435 11.5876 16.4225C11.7669 16.1815 12.0175 16.0032 12.304 15.9128C12.5904 15.8225 12.898 15.8247 13.1831 15.9191C13.4682 16.0135 13.7163 16.1954 13.8921 16.4389C14.068 16.6824 14.1626 16.9751 14.1626 17.2754C14.1626 17.5758 14.068 17.8685 13.8921 18.112C13.7163 18.3554 13.4682 18.5373 13.1831 18.6318C12.898 18.7262 12.5904 18.7284 12.304 18.638C12.0175 18.5477 11.7669 18.3693 11.5876 18.1284C11.442 18.324 11.2489 18.4791 11.0265 18.5789C10.804 18.6788 10.5598 18.72 10.3169 18.6988C10.074 18.6776 9.84064 18.5946 9.63892 18.4576C9.4372 18.3207 9.27386 18.1345 9.16446 17.9166C9.05506 17.6987 9.00322 17.4565 9.01388 17.2129C9.02455 16.9694 9.09736 16.7326 9.22539 16.5251C9.35341 16.3176 9.5324 16.1464 9.74532 16.0276C9.95823 15.9089 10.198 15.8466 10.4418 15.8466ZM0.735033 11.8138H15.0603V10.6798C15.0598 10.5924 15.0248 10.5087 14.963 10.4469C14.9012 10.3851 14.8175 10.3501 14.7301 10.3496H1.06521C1.02178 10.3494 0.978724 10.3577 0.938547 10.3742C0.898371 10.3907 0.861869 10.415 0.831157 10.4457C0.800446 10.4765 0.776135 10.513 0.759635 10.5531C0.743134 10.5933 0.734772 10.6364 0.735033 10.6798V11.8138Z" fill="#92929D"/>
<path fill-rule="evenodd" clip-rule="evenodd" d="M7.1835 16.7576C7.36704 20.4305 6.00929 22.5974 3.60454 23.5068C1.28113 22.6579 -0.0912198 20.5827 0.00471978 16.7013C1.29368 16.7968 2.57135 16.4037 3.58368 15.6001C4.61399 16.2529 5.92795 16.8703 7.17725 16.7576H7.1835ZM1.5335 19.1707C1.80174 19.1413 2.0724 19.1413 2.34064 19.1707C2.41572 19.2145 2.49081 19.2625 2.56172 19.3125C2.6339 19.3603 2.70352 19.4118 2.77028 19.4669L2.91002 19.5941L2.9997 19.6859C3.12067 19.494 3.24581 19.3105 3.37095 19.1332C3.49609 18.9559 3.65877 18.7473 3.80685 18.568C3.95493 18.3886 4.13638 18.1863 4.30949 18.0069C4.4826 17.8276 4.65779 17.6586 4.83924 17.4959H4.85175L4.92475 17.4688H4.94144H5.73815C5.74436 17.4688 5.7505 17.4701 5.75621 17.4725C5.76191 17.475 5.76707 17.4785 5.77136 17.483C5.77565 17.4875 5.77898 17.4928 5.78116 17.4986C5.78334 17.5044 5.78432 17.5106 5.78404 17.5168C5.78429 17.5231 5.7831 17.5294 5.78057 17.5352C5.77804 17.5409 5.77424 17.5461 5.76944 17.5502L5.61093 17.7254C5.36482 18.0035 5.13054 18.2815 4.90807 18.5596C4.6856 18.8377 4.47217 19.1262 4.26777 19.4252C4.06755 19.7144 3.87706 20.0098 3.69631 20.3116C3.51486 20.6119 3.34383 20.9206 3.18324 21.2313L3.08313 21.4232C3.08047 21.4288 3.07672 21.4337 3.0721 21.4378C3.06749 21.4419 3.0621 21.445 3.05627 21.4469C3.05043 21.4489 3.04426 21.4496 3.03812 21.4491C3.03199 21.4486 3.02602 21.4469 3.02056 21.4441C3.0154 21.442 3.01071 21.4389 3.00677 21.4349C3.00283 21.431 2.99972 21.4263 2.99762 21.4211L2.90793 21.2251C2.8248 21.0468 2.73149 20.8734 2.62846 20.7058C2.52957 20.5406 2.41946 20.3824 2.29893 20.2323C2.17933 20.0839 2.04897 19.9445 1.90891 19.8152C1.76637 19.6842 1.61517 19.5629 1.45633 19.4523C1.4475 19.4467 1.44083 19.4383 1.43742 19.4285C1.43401 19.4186 1.43406 19.4079 1.43756 19.3981L1.49595 19.2062C1.49875 19.1963 1.5048 19.1876 1.51312 19.1815C1.52144 19.1755 1.53156 19.1724 1.54184 19.1728L1.5335 19.1707Z" fill="#92929D"/>
</svg>
