<svg width="24" height="24" viewBox="0 0 24 24" fill="none" xmlns="http://www.w3.org/2000/svg">
<g filter="url(#filter0_d_54_265)">
<path d="M11.9999 14.6666C15.6818 14.6666 18.6666 11.6819 18.6666 7.99998C18.6666 4.31808 15.6818 1.33331 11.9999 1.33331C8.31802 1.33331 5.33325 4.31808 5.33325 7.99998C5.33325 11.6819 8.31802 14.6666 11.9999 14.6666Z" stroke="#92929D" stroke-linecap="round" stroke-linejoin="round"/>
<path d="M10.0601 6.00001C10.2168 5.55446 10.5262 5.17875 10.9334 4.93944C11.3406 4.70012 11.8193 4.61264 12.2848 4.69249C12.7504 4.77234 13.1726 5.01436 13.4768 5.3757C13.781 5.73703 13.9474 6.19436 13.9467 6.66668C13.9467 8.00001 11.9467 8.66668 11.9467 8.66668" stroke="#92929D" stroke-linecap="round" stroke-linejoin="round"/>
<path d="M12 11.3333H12.01" stroke="#92929D" stroke-linecap="round" stroke-linejoin="round"/>
</g>
<defs>
<filter id="filter0_d_54_265" x="0" y="0" width="24" height="24" filterUnits="userSpaceOnUse" color-interpolation-filters="sRGB">
<feFlood flood-opacity="0" result="BackgroundImageFix"/>
<feColorMatrix in="SourceAlpha" type="matrix" values="0 0 0 0 0 0 0 0 0 0 0 0 0 0 0 0 0 0 127 0" result="hardAlpha"/>
<feOffset dy="4"/>
<feGaussianBlur stdDeviation="2"/>
<feComposite in2="hardAlpha" operator="out"/>
<feColorMatrix type="matrix" values="0 0 0 0 0 0 0 0 0 0 0 0 0 0 0 0 0 0 0.25 0"/>
<feBlend mode="normal" in2="BackgroundImageFix" result="effect1_dropShadow_54_265"/>
<feBlend mode="normal" in="SourceGraphic" in2="effect1_dropShadow_54_265" result="shape"/>
</filter>
</defs>
</svg>
