<svg width="15" height="16" viewBox="0 0 15 16" fill="none" xmlns="http://www.w3.org/2000/svg">
<path d="M5.55494 13.8436V11.7453C5.55492 11.2116 5.99003 10.7779 6.52911 10.7744H8.5038C9.04546 10.7744 9.48456 11.2091 9.48456 11.7453V11.7453V13.8501C9.48443 14.3032 9.84975 14.6736 10.3073 14.6842H11.6238C12.9361 14.6842 14 13.631 14 12.3318V12.3318V6.36273C13.993 5.85162 13.7506 5.37166 13.3418 5.05944L8.83949 1.46889C8.05075 0.843703 6.92951 0.843703 6.14076 1.46889L1.65823 5.06596C1.24786 5.37691 1.00505 5.85767 1 6.36925V12.3318C1 13.631 2.06386 14.6842 3.3762 14.6842H4.69266C5.16161 14.6842 5.54177 14.3079 5.54177 13.8436V13.8436" stroke="#157BFB" stroke-width="1.5" stroke-linecap="round" stroke-linejoin="round"/>
</svg>
